<?xml version="1.0" encoding="utf-8"?>
<!-- Generator: Adobe Illustrator 15.0.0, SVG Export Plug-In . SVG Version: 6.00 Build 0)  -->
<!DOCTYPE svg PUBLIC "-//W3C//DTD SVG 1.1//EN" "http://www.w3.org/Graphics/SVG/1.1/DTD/svg11.dtd">
<svg version="1.1" id="Livello_1" xmlns="http://www.w3.org/2000/svg" xmlns:xlink="http://www.w3.org/1999/xlink" x="0px" y="0px"
	 width="24px" height="24px" viewBox="0 0 96 96" enable-background="new 0 0 96 96" xml:space="preserve">
<path fill="#3A8E2C" d="M95.154,76.313c0,10.424-8.449,18.875-18.875,18.875H19.654c-10.424,0-18.875-8.451-18.875-18.875V19.684
	C0.779,9.26,9.23,0.809,19.654,0.809h56.625c10.426,0,18.875,8.451,18.875,18.875V76.313z"/>
<path fill="#FFFFFF" d="M57.956,78.313H30.601c-2.127,0-3.854,1.726-3.854,3.854c0,2.13,1.726,3.854,3.854,3.854h27.355
	c2.127,0,3.853-1.725,3.853-3.854C61.808,80.038,60.081,78.313,57.956,78.313"/>
<path fill="#FFFFFF" d="M47.896,47.518v21.17c0,2.338-1.892,4.229-4.23,4.229c-2.338,0-4.23-1.893-4.23-4.229V33.146h0.006
	c-0.011-3.273,0.708-6.595,2.249-9.725c2.585-5.265,7.066-9.203,12.615-11.092c5.551-1.885,11.508-1.496,16.768,1.099
	c2.096,1.035,2.957,3.574,1.927,5.669c-1.033,2.096-3.564,2.957-5.661,1.924c-3.232-1.594-6.893-1.834-10.307-0.673
	c-3.41,1.161-6.166,3.581-7.752,6.816c-0.951,1.924-1.393,3.969-1.383,5.982v6.664h16.738c2.126,0,3.854,1.725,3.854,3.854
	s-1.729,3.854-3.854,3.854H47.896z"/>
</svg>
