<?xml version="1.0" encoding="utf-8"?>
<!-- Generator: Adobe Illustrator 15.0.0, SVG Export Plug-In . SVG Version: 6.00 Build 0)  -->
<!DOCTYPE svg PUBLIC "-//W3C//DTD SVG 1.1//EN" "http://www.w3.org/Graphics/SVG/1.1/DTD/svg11.dtd">
<svg version="1.1" id="Livello_1" xmlns="http://www.w3.org/2000/svg" xmlns:xlink="http://www.w3.org/1999/xlink" x="0px" y="0px"
	 width="1946px" height="359.982px" viewBox="0 0 1946 359.982" enable-background="new 0 0 1946 359.982" xml:space="preserve">
<g>
	<g>
		<path fill="#378E2B" d="M806.602,285.375c-50.75,0-92.037-41.287-92.037-92.041c0-50.756,41.287-92.042,92.037-92.042
			c50.752,0,92.042,41.286,92.042,92.042C898.645,244.088,857.354,285.375,806.602,285.375 M806.602,136.752
			c-31.194,0-56.575,25.386-56.575,56.582c0,31.194,25.381,56.582,56.575,56.582c31.201,0,56.583-25.388,56.583-56.582
			C863.185,162.138,837.803,136.752,806.602,136.752 M1929.831,258.535c6.927-6.916,6.927-18.145,0.005-25.07
			c-6.926-6.926-18.15-6.926-25.076,0c-22.059,22.049-57.947,22.049-80.015,0c-22.06-22.059-22.06-57.96,0.004-80.02
			c10.682-10.688,24.891-16.568,40.001-16.568c15.115,0,29.323,5.88,40.006,16.568c6.925,6.926,18.148,6.926,25.075,0
			c6.927-6.918,6.927-18.145,0.005-25.072c-17.384-17.386-40.498-26.965-65.086-26.965c-24.584,0-47.699,9.579-65.077,26.965
			c-35.889,35.884-35.889,94.279,0,130.162c17.942,17.947,41.512,26.912,65.083,26.912
			C1888.319,285.447,1911.889,276.482,1929.831,258.535 M507.125,193.432c0,50.746,40.331,92.033,89.904,92.033
			c21.311,0,40.012-7.666,54.445-20.395v2.674c0,9.793,7.936,17.729,17.729,17.729c9.795,0,17.731-7.936,17.731-17.729V37.522
			c0-9.793-7.936-17.729-17.731-17.729c-9.793,0-17.729,7.937-17.729,17.729v84.264c-14.433-12.729-33.134-20.396-54.445-20.396
			C547.456,101.39,507.125,142.677,507.125,193.432 M542.585,193.432c0-31.194,24.422-56.582,54.444-56.582
			c30.023,0,54.445,25.387,54.445,56.582c0,31.195-24.422,56.574-54.445,56.574C567.007,250.006,542.585,224.627,542.585,193.432
			 M1178.674,172.813c-0.1-39.451-32.213-71.516-71.684-71.516c-21.522,0-40.81,9.578-53.961,24.644
			c-13.151-15.066-32.438-24.644-53.962-24.644c-39.501,0-71.637,32.11-71.686,71.607l-0.011,0.09v94.647
			c0,9.795,7.938,17.73,17.73,17.73c9.796,0,17.73-7.936,17.73-17.73v-94.603l0.005-0.044c0-19.976,16.256-36.237,36.23-36.237
			c19.977,0,36.232,16.261,36.232,36.237l0.003,0.025v94.622c0,9.795,7.938,17.73,17.73,17.73c9.795,0,17.732-7.936,17.732-17.73
			v-94.647l-0.004-0.023c0.013-19.961,16.261-36.214,36.229-36.214c19.977,0,36.232,16.261,36.232,36.237l0.009,0.059v94.589
			c0,9.795,7.936,17.73,17.73,17.73c9.793,0,17.729-7.936,17.729-17.73v-94.647C1178.691,172.93,1178.675,172.875,1178.674,172.813
			 M1743.16,267.637V119.023c0-9.794-7.938-17.729-17.732-17.729c-9.793,0-17.73,7.935-17.73,17.729v148.614
			c0,9.795,7.938,17.73,17.73,17.73C1735.223,285.367,1743.16,277.432,1743.16,267.637 M1725.428,19.792
			c-12.601,0-22.813,10.215-22.813,22.815c0,12.6,10.213,22.815,22.813,22.815c12.6,0,22.815-10.215,22.815-22.815
			C1748.243,30.008,1738.027,19.792,1725.428,19.792 M1557.917,231.165c0-37.805-39.331-46.922-67.09-53.388
			c-31.529-7.351-42.72-12.05-42.72-23.81c0-9.904,12.44-17.865,31.943-17.865c15.015,0,29.742,3.896,43.766,11.571
			c8.356,4.572,18.861,1.516,23.443-6.845c4.581-8.368,1.515-18.856-6.85-23.437c-19.174-10.507-39.478-15.828-60.359-15.828
			c-36.038,0-67.794,23.3-67.794,52.405c0,41.268,41.438,50.621,70.733,57.447c27.555,6.422,39.076,11.853,39.076,20.798
			c0,14.683-19.609,18.587-36.403,18.587c-18.946,0-33.057-4.736-52.062-17.479c-7.925-5.293-18.65-3.184-23.957,4.735
			c-5.313,7.919-3.193,18.649,4.729,23.962c24.71,16.566,45.367,23.322,71.289,23.322
			C1534.67,285.34,1557.917,258.955,1557.917,231.165 M1659.239,249.91c-19.976,0-34.421-16.252-34.421-36.229V136.97h36.814
			c8.925,0,16.161-7.233,16.161-16.162c0-8.929-7.236-16.162-16.161-16.162h-36.814V65.118c0-9.794-7.937-17.731-17.73-17.731
			s-17.732,7.937-17.732,17.731v148.564c0,39.531,30.351,71.691,69.884,71.691c9.794,0,17.73-7.936,17.73-17.73
			S1669.033,249.91,1659.239,249.91 M1384.545,185.745c0-50.576-45.134-84.55-87.285-84.55c-50.588,0-91.742,41.154-91.742,91.741
			c0,52.689,40.174,92.426,93.451,92.426c28.25,0,49.367-10.141,59.351-16.135c4.744-2.775,8.677-8.436,8.677-14.811
			c0-8.098-6.545-15.83-16.18-15.83c-2.794,0-6.264,1.057-9.018,2.434c-10.917,6.068-25.654,12.674-42.83,12.674
			c-27.438,0-51.533-16.57-57.166-44h120.512C1374.158,209.693,1384.545,198.503,1384.545,185.745 M1241.78,177.391
			c4.497-26.428,29.079-45.216,55.479-45.216c28.117,0,49.702,23.859,53.71,45.216H1241.78z M269.231,267.637V119.023
			c0-9.794-7.937-17.729-17.731-17.729s-17.73,7.935-17.73,17.729v148.614c0,9.795,7.936,17.73,17.73,17.73
			S269.231,277.432,269.231,267.637 M480.321,187.833c-0.538-47.802-39.546-86.537-87.473-86.537
			c-48.263,0-87.524,39.267-87.524,87.523l0.004,0.045v78.776c0,9.795,7.936,17.73,17.731,17.73c9.793,0,17.729-7.936,17.729-17.73
			v-78.821l-0.002-0.031c0.018-28.691,23.365-52.032,52.062-52.032c28.706,0,52.063,23.359,52.063,52.063
			c0,0.167,0.046,0.325,0.049,0.491v78.33c0,9.795,7.936,17.73,17.731,17.73c9.794,0,17.729-7.936,17.729-17.73v-78.821
			C480.421,188.482,480.339,188.165,480.321,187.833 M251.5,19.792c-12.6,0-22.816,10.215-22.816,22.815
			c0,12.6,10.216,22.815,22.816,22.815s22.815-10.215,22.815-22.815C274.315,30.008,264.1,19.792,251.5,19.792 M144.023,312.51
			H29.55c-8.903,0-16.126,7.217-16.126,16.127c0,8.908,7.223,16.125,16.126,16.125h114.473c8.903,0,16.125-7.217,16.125-16.125
			C160.147,319.727,152.926,312.51,144.023,312.51 M104.469,179.092v88.593c0,9.773-7.915,17.699-17.701,17.699
			c-9.784,0-17.7-7.926-17.7-17.699v-148.73h0.022c-0.045-13.698,2.966-27.601,9.41-40.693
			c10.822-22.034,29.573-38.514,52.792-46.417c23.232-7.892,48.152-6.261,70.163,4.596c8.77,4.333,12.374,14.952,8.064,23.723
			c-4.323,8.77-14.919,12.374-23.689,8.051c-13.537-6.672-28.842-7.675-43.122-2.816c-14.279,4.857-25.809,14.985-32.458,28.522
			c-3.97,8.053-5.817,16.606-5.782,25.035v27.885h70.049c8.895,0,16.125,7.219,16.125,16.125c0,8.908-7.23,16.126-16.125,16.126
			H104.469z"/>
	</g>
</g>
</svg>
