<?xml version="1.0" encoding="utf-8"?>
<!-- Generator: Adobe Illustrator 16.0.0, SVG Export Plug-In . SVG Version: 6.00 Build 0)  -->
<!DOCTYPE svg PUBLIC "-//W3C//DTD SVG 1.1//EN" "http://www.w3.org/Graphics/SVG/1.1/DTD/svg11.dtd">
<svg version="1.1" id="Livello_1" xmlns="http://www.w3.org/2000/svg" xmlns:xlink="http://www.w3.org/1999/xlink" x="0px" y="0px"
	 width="300px" height="92px" viewBox="0 101.5 300 92" enable-background="new 0 101.5 300 92" xml:space="preserve">
<path fill="#378E2B" d="M125.494,153.748c-7.214,0-13.091-5.877-13.091-13.091c0-7.215,5.877-13.091,13.091-13.091
	c7.214,0,13.091,5.876,13.091,13.091C138.585,147.871,132.708,153.748,125.494,153.748z M125.494,132.616
	c-4.434,0-8.042,3.607-8.042,8.042c0,4.434,3.607,8.041,8.042,8.041s8.041-3.607,8.041-8.041
	C133.535,136.223,129.928,132.616,125.494,132.616z M285.242,149.93c0.986-0.985,0.986-2.586,0-3.572
	c-0.985-0.985-2.586-0.985-3.571,0c-3.132,3.132-8.234,3.132-11.385,0c-3.132-3.132-3.132-8.252,0-11.384
	c1.513-1.513,3.537-2.358,5.684-2.358s4.169,0.845,5.684,2.358c0.985,0.985,2.586,0.985,3.571,0s0.985-2.587,0-3.572
	c-2.48-2.481-5.754-3.836-9.255-3.836s-6.792,1.355-9.256,3.836c-5.103,5.103-5.103,13.407,0,18.51
	c2.552,2.552,5.912,3.836,9.256,3.836C279.33,153.766,282.69,152.48,285.242,149.93z M82.896,140.674
	c0,7.214,5.736,13.091,12.792,13.091c3.026,0,5.684-1.091,7.742-2.903v0.387c0,1.39,1.126,2.517,2.516,2.517
	c1.39,0,2.516-1.127,2.516-2.517v-32.763c0-1.39-1.126-2.516-2.516-2.516c-1.39,0-2.516,1.126-2.516,2.516v11.983
	c-2.059-1.812-4.716-2.903-7.742-2.903C88.632,127.583,82.896,133.442,82.896,140.674z M87.946,140.674
	c0-4.434,3.466-8.041,7.742-8.041c4.276,0,7.742,3.607,7.742,8.041c0,4.434-3.466,8.042-7.742,8.042
	C91.412,148.716,87.946,145.108,87.946,140.674z M178.403,137.736c-0.018-5.613-4.575-10.17-10.188-10.17
	c-3.062,0-5.807,1.355-7.671,3.501c-1.867-2.146-4.611-3.501-7.673-3.501c-5.613,0-10.188,4.575-10.188,10.188v0.018v13.459
	c0,1.391,1.126,2.518,2.516,2.518c1.39,0,2.516-1.127,2.516-2.518v-13.459l0,0c0-2.833,2.305-5.156,5.155-5.156
	c2.833,0,5.155,2.305,5.155,5.156l0,0v13.459c0,1.391,1.127,2.518,2.518,2.518c1.389,0,2.516-1.127,2.516-2.518v-13.459l0,0
	c0-2.833,2.305-5.156,5.155-5.156c2.832,0,5.154,2.305,5.154,5.156l0,0v13.459c0,1.391,1.128,2.518,2.517,2.518
	c1.39,0,2.517-1.127,2.517-2.518v-13.459C178.403,137.753,178.403,137.753,178.403,137.736z M258.69,151.23v-21.148
	c0-1.39-1.125-2.516-2.516-2.516s-2.516,1.126-2.516,2.516v21.132c0,1.39,1.125,2.517,2.516,2.517S258.69,152.621,258.69,151.23z
	 M256.175,115.971c-1.795,0-3.237,1.46-3.237,3.237s1.461,3.238,3.237,3.238s3.237-1.46,3.237-3.238S257.97,115.971,256.175,115.971
	z M232.35,146.041c0-5.384-5.595-6.668-9.536-7.602c-4.486-1.038-6.07-1.707-6.07-3.378c0-1.407,1.777-2.534,4.54-2.534
	c2.129,0,4.223,0.545,6.229,1.654c1.197,0.651,2.675,0.211,3.326-0.968c0.65-1.196,0.211-2.674-0.968-3.325
	c-2.728-1.496-5.613-2.252-8.587-2.252c-5.12,0-9.643,3.308-9.643,7.46c0,5.877,5.895,7.197,10.064,8.164
	c3.924,0.915,5.561,1.689,5.561,2.956c0,2.094-2.798,2.639-5.173,2.639c-2.692,0-4.698-0.668-7.408-2.48
	c-1.126-0.757-2.657-0.458-3.413,0.668c-0.757,1.126-0.458,2.657,0.669,3.414c3.519,2.357,6.456,3.324,10.135,3.324
	C229.043,153.748,232.35,149.982,232.35,146.041z M246.761,148.698c-2.832,0-4.892-2.305-4.892-5.155v-10.909h5.244
	c1.268,0,2.305-1.021,2.305-2.305c0-1.284-1.037-2.305-2.305-2.305h-5.244v-5.63c0-1.39-1.125-2.516-2.516-2.516
	s-2.516,1.126-2.516,2.516v21.132c0,5.63,4.311,10.188,9.941,10.188c1.39,0,2.516-1.127,2.516-2.516
	C249.277,149.824,248.151,148.698,246.761,148.698z M207.683,139.583c0-7.197-6.423-12.018-12.424-12.018
	c-7.196,0-13.055,5.859-13.055,13.056c0,7.496,5.719,13.144,13.284,13.144c4.012,0,7.021-1.443,8.445-2.287
	c0.67-0.387,1.232-1.197,1.232-2.112c0-1.144-0.934-2.252-2.306-2.252c-0.404,0-0.896,0.158-1.284,0.352
	c-1.549,0.862-3.642,1.795-6.088,1.795c-3.906,0-7.337-2.358-8.129-6.264h17.138C206.204,142.979,207.683,141.396,207.683,139.583z
	 M187.377,138.387c0.634-3.765,4.136-6.422,7.882-6.422c3.995,0,7.073,3.396,7.638,6.422H187.377z M49.06,151.23v-21.148
	c0-1.39-1.126-2.516-2.516-2.516c-1.39,0-2.516,1.126-2.516,2.516v21.132c0,1.39,1.126,2.517,2.516,2.517
	C47.934,153.748,49.06,152.621,49.06,151.23z M79.077,139.865c-0.07-6.792-5.63-12.299-12.439-12.299
	c-6.862,0-12.44,5.578-12.44,12.44l0,0v11.208c0,1.39,1.126,2.517,2.516,2.517s2.516-1.127,2.516-2.517v-11.208l0,0
	c0-4.082,3.326-7.408,7.408-7.408c4.082,0,7.408,3.326,7.408,7.408c0,0.018,0,0.053,0,0.071v11.137c0,1.39,1.126,2.517,2.516,2.517
	c1.39,0,2.516-1.127,2.516-2.517v-11.208C79.095,139.971,79.077,139.918,79.077,139.865z M46.543,115.971
	c-1.795,0-3.237,1.46-3.237,3.237s1.46,3.238,3.237,3.238c1.794,0,3.238-1.46,3.238-3.238S48.338,115.971,46.543,115.971z
	 M31.253,157.601H14.978c-1.267,0-2.288,1.021-2.288,2.288s1.021,2.288,2.288,2.288h16.276c1.267,0,2.287-1.021,2.287-2.288
	C33.541,158.639,32.52,157.601,31.253,157.601z M25.623,138.633v12.597c0,1.391-1.126,2.518-2.516,2.518
	c-1.39,0-2.516-1.127-2.516-2.518v-21.148l0,0c0-1.953,0.422-3.924,1.337-5.789c1.548-3.132,4.206-5.49,7.513-6.599
	c3.308-1.126,6.845-0.897,9.977,0.651c1.25,0.615,1.759,2.129,1.144,3.378c-0.616,1.25-2.129,1.759-3.361,1.144
	c-1.918-0.95-4.1-1.091-6.141-0.405c-2.023,0.686-3.66,2.129-4.61,4.047c-0.563,1.144-0.827,2.358-0.827,3.554v3.959h9.959
	c1.267,0,2.288,1.021,2.288,2.288c0,1.267-1.021,2.287-2.288,2.287h-9.959V138.633z"/>


</svg>
